<svg width="1200" height="98" viewBox="0 0 1200 98" fill="none" xmlns="http://www.w3.org/2000/svg">
<g clip-path="url(#clip0_3_23)">
<rect width="1200" height="98" transform="matrix(-1 0 0 -1 1200 98)" fill="white"/>
<path d="M1200.25 39.2L1171.67 45.7538C1143.08 52.0625 1086.08 65.5375 1028.58 70.2538C971.667 75.3375 914.417 71.6625 857.75 66.9463C800.25 61.8625 742.75 55.7375 686.083 60.4538C628.833 65.5375 571.917 81.4625 514.417 86.5463C457.417 91.2625 400.25 85.1375 342.75 73.5C286 61.8625 228.583 45.9375 171.917 39.2C114.5 32.4625 57.75 36.1375 0.25 45.7538C-56.9167 55.7375 -113.917 71.6625 -171.417 66.9463C-228.333 61.8625 -285.583 36.1375 -342.25 24.5C-399.75 12.8625 -457.25 16.5375 -513.917 27.7463C-571.167 39.2001 -628.083 58.8 -685.583 68.6C-742.583 78.4 -799.75 78.4 -857.25 80.0538C-914 81.4625 -971.417 85.1375 -1028.08 88.2C-1085.5 91.2625 -1142.25 94.9375 -1199.75 84.9538C-1256.92 75.3375 -1313.92 52.0625 -1371.42 52.2463C-1428.33 52.0625 -1485.58 75.3375 -1542.25 73.5C-1599.75 71.6625 -1657.25 45.9375 -1713.92 45.7538C-1771.17 45.9375 -1828.08 71.6625 -1885.58 73.5C-1942.58 75.3375 -1999.75 52.0625 -2057.25 37.5463C-2114 22.6625 -2171.42 16.5375 -2228.08 17.9463C-2285.5 19.6 -2342.25 29.4001 -2399.75 42.4463C-2456.92 55.7376 -2513.92 71.6625 -2571.42 66.9463C-2628.33 61.8625 -2685.58 36.1375 -2742.25 32.6463C-2799.75 29.4 -2857.25 49 -2885.58 58.8L-2914 68.6V4.57764e-05H-2885.5C-2856.92 4.57764e-05 -2799.75 4.57764e-05 -2742.25 4.57764e-05C-2685.5 4.57764e-05 -2628.08 4.57764e-05 -2571.42 4.57764e-05C-2514 4.57764e-05 -2457.25 4.57764e-05 -2399.75 4.57764e-05C-2342.58 4.57764e-05 -2285.58 4.57764e-05 -2228.08 4.57764e-05C-2171.17 4.57764e-05 -2113.92 4.57764e-05 -2057.25 4.57764e-05C-1999.75 4.57764e-05 -1942.25 4.57764e-05 -1885.58 4.57764e-05C-1828.33 4.57764e-05 -1771.42 4.57764e-05 -1713.92 4.57764e-05C-1656.92 4.57764e-05 -1599.75 4.57764e-05 -1542.25 4.57764e-05C-1485.5 4.57764e-05 -1428.08 4.57764e-05 -1371.42 4.57764e-05C-1314 4.57764e-05 -1257.25 4.57764e-05 -1199.75 4.57764e-05C-1142.58 4.57764e-05 -1085.58 4.57764e-05 -1028.08 4.57764e-05C-971.167 4.57764e-05 -913.917 4.57764e-05 -857.25 4.57764e-05C-799.75 4.57764e-05 -742.25 4.57764e-05 -685.583 4.57764e-05C-628.333 4.57764e-05 -571.417 4.57764e-05 -513.917 4.57764e-05C-456.917 4.57764e-05 -399.75 4.57764e-05 -342.25 4.57764e-05C-285.5 4.57764e-05 -228.083 4.57764e-05 -171.417 4.57764e-05C-114 4.57764e-05 -57.25 4.57764e-05 0.25 4.57764e-05C57.4167 4.57764e-05 114.417 4.57764e-05 171.917 4.57764e-05C228.833 4.57764e-05 286.083 4.57764e-05 342.75 4.57764e-05C400.25 4.57764e-05 457.75 4.57764e-05 514.417 4.57764e-05C571.667 4.57764e-05 628.583 4.57764e-05 686.083 4.57764e-05C743.083 4.57764e-05 800.25 4.57764e-05 857.75 4.57764e-05C914.5 4.57764e-05 971.917 4.57764e-05 1028.58 4.57764e-05C1086 4.57764e-05 1142.75 4.57764e-05 1171.92 4.57764e-05H1200.25V39.2Z" fill="url(#paint0_linear_3_23)"/>
<path d="M1200.25 39.2L1171.67 45.7538C1143.08 52.0625 1086.08 65.5375 1028.58 70.2538C971.667 75.3375 914.417 71.6625 857.75 66.9463C800.25 61.8625 742.75 55.7375 686.083 60.4538C628.833 65.5375 571.917 81.4625 514.417 86.5463C457.417 91.2625 400.25 85.1375 342.75 73.5C286 61.8625 228.583 45.9375 171.917 39.2C114.5 32.4625 57.75 36.1375 0.25 45.7538C-56.9167 55.7375 -113.917 71.6625 -171.417 66.9463C-228.333 61.8625 -285.583 36.1375 -342.25 24.5C-399.75 12.8625 -457.25 16.5375 -513.917 27.7463C-571.167 39.2001 -628.083 58.8 -685.583 68.6C-742.583 78.4 -799.75 78.4 -857.25 80.0538C-914 81.4625 -971.417 85.1375 -1028.08 88.2C-1085.5 91.2625 -1142.25 94.9375 -1199.75 84.9538C-1256.92 75.3375 -1313.92 52.0625 -1371.42 52.2463C-1428.33 52.0625 -1485.58 75.3375 -1542.25 73.5C-1599.75 71.6625 -1657.25 45.9375 -1713.92 45.7538C-1771.17 45.9375 -1828.08 71.6625 -1885.58 73.5C-1942.58 75.3375 -1999.75 52.0625 -2057.25 37.5463C-2114 22.6625 -2171.42 16.5375 -2228.08 17.9463C-2285.5 19.6 -2342.25 29.4001 -2399.75 42.4463C-2456.92 55.7376 -2513.92 71.6625 -2571.42 66.9463C-2628.33 61.8625 -2685.58 36.1375 -2742.25 32.6463C-2799.75 29.4 -2857.25 49 -2885.58 58.8L-2914 68.6V4.57764e-05H-2885.5C-2856.92 4.57764e-05 -2799.75 4.57764e-05 -2742.25 4.57764e-05C-2685.5 4.57764e-05 -2628.08 4.57764e-05 -2571.42 4.57764e-05C-2514 4.57764e-05 -2457.25 4.57764e-05 -2399.75 4.57764e-05C-2342.58 4.57764e-05 -2285.58 4.57764e-05 -2228.08 4.57764e-05C-2171.17 4.57764e-05 -2113.92 4.57764e-05 -2057.25 4.57764e-05C-1999.75 4.57764e-05 -1942.25 4.57764e-05 -1885.58 4.57764e-05C-1828.33 4.57764e-05 -1771.42 4.57764e-05 -1713.92 4.57764e-05C-1656.92 4.57764e-05 -1599.75 4.57764e-05 -1542.25 4.57764e-05C-1485.5 4.57764e-05 -1428.08 4.57764e-05 -1371.42 4.57764e-05C-1314 4.57764e-05 -1257.25 4.57764e-05 -1199.75 4.57764e-05C-1142.58 4.57764e-05 -1085.58 4.57764e-05 -1028.08 4.57764e-05C-971.167 4.57764e-05 -913.917 4.57764e-05 -857.25 4.57764e-05C-799.75 4.57764e-05 -742.25 4.57764e-05 -685.583 4.57764e-05C-628.333 4.57764e-05 -571.417 4.57764e-05 -513.917 4.57764e-05C-456.917 4.57764e-05 -399.75 4.57764e-05 -342.25 4.57764e-05C-285.5 4.57764e-05 -228.083 4.57764e-05 -171.417 4.57764e-05C-114 4.57764e-05 -57.25 4.57764e-05 0.25 4.57764e-05C57.4167 4.57764e-05 114.417 4.57764e-05 171.917 4.57764e-05C228.833 4.57764e-05 286.083 4.57764e-05 342.75 4.57764e-05C400.25 4.57764e-05 457.75 4.57764e-05 514.417 4.57764e-05C571.667 4.57764e-05 628.583 4.57764e-05 686.083 4.57764e-05C743.083 4.57764e-05 800.25 4.57764e-05 857.75 4.57764e-05C914.5 4.57764e-05 971.917 4.57764e-05 1028.58 4.57764e-05C1086 4.57764e-05 1142.75 4.57764e-05 1171.92 4.57764e-05H1200.25V39.2Z" fill="url(#paint1_linear_3_23)"/>
</g>
<defs>
<linearGradient id="paint0_linear_3_23" x1="1660.25" y1="-404.5" x2="1200.25" y2="91.4706" gradientUnits="userSpaceOnUse">
<stop stop-color="#001F3F"/>
<stop offset="1" stop-color="#003366"/>
</linearGradient>
<linearGradient id="paint1_linear_3_23" x1="1660.25" y1="-404.5" x2="1200.25" y2="91.4706" gradientUnits="userSpaceOnUse">
<stop stop-color="#001F3F"/>
<stop offset="1" stop-color="#003366"/>
</linearGradient>
<clipPath id="clip0_3_23">
<rect width="1200" height="98" fill="white" transform="matrix(-1 0 0 -1 1200 98)"/>
</clipPath>
</defs>
</svg>
